<?xml version="1.0" encoding="UTF-8" standalone="no"?>
<!-- Created with Inkscape (http://www.inkscape.org/) -->

<svg
   width="256"
   height="256"
   viewBox="0 0 256 256"
   version="1.1"
   id="svg5"
   xmlns:xlink="http://www.w3.org/1999/xlink"
   xmlns="http://www.w3.org/2000/svg"
   xmlns:svg="http://www.w3.org/2000/svg">
  <defs
     id="defs2">
    <linearGradient
       id="linearGradient20899">
      <stop
         style="stop-color:#2d7ea4;stop-opacity:0.51903915;"
         offset="0"
         id="stop20895" />
      <stop
         style="stop-color:#32bbce;stop-opacity:0.14936702;"
         offset="1"
         id="stop20897" />
    </linearGradient>
    <linearGradient
       id="linearGradient2260">
      <stop
         style="stop-color:#3e6c8e;stop-opacity:1;"
         offset="0"
         id="stop2256" />
      <stop
         style="stop-color:#5da9d7;stop-opacity:1;"
         offset="0.05017401"
         id="stop2287" />
      <stop
         style="stop-color:#326592;stop-opacity:1;"
         offset="0.09843595"
         id="stop2289" />
      <stop
         style="stop-color:#367697;stop-opacity:1;"
         offset="0.9002201"
         id="stop2293" />
      <stop
         style="stop-color:#5ba7d6;stop-opacity:1;"
         offset="0.95043826"
         id="stop2291" />
      <stop
         style="stop-color:#3a7790;stop-opacity:1;"
         offset="1"
         id="stop2258" />
    </linearGradient>
    <linearGradient
       xlink:href="#linearGradient2260"
       id="linearGradient2262"
       x1="10"
       y1="110"
       x2="110"
       y2="110"
       gradientUnits="userSpaceOnUse" />
  </defs>
  <g
     id="layer1">
    <g
       id="g27770"
       transform="matrix(2.56,0,0,2.5573365,-25.6,-38.198999)">
      <path
         style="opacity:1;fill:#ffd42a;fill-opacity:1;stroke:none;stroke-width:0.444936;paint-order:stroke markers fill"
         d="m 19.536264,36.709119 c 0,0 9.11357,0.474711 9.11357,-8.424011 0,-8.898722 0,-6.674042 0,-6.674042 0,0 0,-6.674041 8.898722,-6.674041 8.898723,0 44.493611,0 44.493611,0 0,0 8.898723,0 8.898723,8.898722 0,8.898722 0,4.449361 0,4.449361 0,0 0,8.898722 8.898724,8.898722 8.898716,0 -80.30335,-0.474711 -80.30335,-0.474711 z"
         id="path35888" />
      <path
         style="fill:url(#linearGradient2262);fill-opacity:1"
         d="m 20,115 h 80 c 0,0 10,0 10,-10 0,-10 0,-10 0,-10 0,0 0,10 -10,10 -10,0 -80,0 -80,0 0,0 -10,0 -10,-10 0,-10 0,0 0,0 v 10 c 0,0 0,10 10,10 z"
         id="path2194" />
      <path
         style="fill:#7cc0e9;fill-opacity:1"
         d="M 10,95 V 45 c 0,0 0,-10 10,-10 10,0 80,0 80,0 0,0 10,0 10,10 0,10 0,50 0,50 0,0 0,10 -10,10 -10,0 -80,0 -80,0 0,0 -10,0 -10,-10 z"
         id="path2489" />
      <path
         style="fill:#536487;fill-opacity:1;stroke-width:1.25"
         d="m 47.5,95 6.25,-25 c 0,0 -6.25,-6.25 -6.25,-12.5 0,-6.25 6.25,-12.5 12.5,-12.5 6.25,0 12.5,6.25 12.5,12.5 0,6.25 -6.25,12.5 -6.25,12.5 l 6.25,25 z"
         id="path2506" />
      <path
         style="fill:#092838;fill-opacity:1;stroke-width:1.25"
         d="m 47.5,57.5 c 0,0 6.25,-6.25 12.5,-6.25 6.25,0 12.5,6.25 12.5,6.25 0,0 0,-12.5 -12.5,-12.5 -12.5,0 -12.5,12.5 -12.5,12.5 z"
         id="path2591" />
      <path
         style="opacity:1;fill:#aa8800;fill-opacity:1;stroke:none;stroke-width:0.444936;paint-order:stroke markers fill"
         d="m 36.38785,26.060428 h 46.251966 v -4.57433 H 36.334484 Z"
         id="path36131" />
      <path
         style="opacity:1;fill:#554400;fill-opacity:1;stroke:none;stroke-width:0.444936;paint-order:stroke markers fill"
         d="M 36.334484,22.457787 H 82.639816 V 21.486099 H 36.334484 Z"
         id="path36403" />
    </g>
  </g>
</svg>
